<mxfile host="app.diagrams.net" modified="2024-01-27T05:17:35.906Z" agent="Mozilla/5.0 (Macintosh; Intel Mac OS X 10_15_7) AppleWebKit/537.36 (KHTML, like Gecko) Chrome/120.0.0.0 Safari/537.36" version="23.0.2" etag="XdzuGKhJmzugdHI6e5xR" type="github">
  <diagram name="Page-1" id="IO1dlcx8iQIoAz-bFbeh">
    <mxGraphModel>
      <root>
        <mxCell id="0" />
        <mxCell id="1" parent="0" />
      </root>
    </mxGraphModel>
  </diagram>
</mxfile>
